<svg width="25" height="25" viewBox="0 0 25 25" fill="none" xmlns="http://www.w3.org/2000/svg">
<path d="M0.702461 14.7149C0.11009 11.6183 0.76933 8.41314 2.53566 5.80196C4.302 3.19078 7.03129 1.3867 10.1252 0.785212C13.2192 0.18372 16.4253 0.833895 19.0408 2.59321C21.6563 4.35252 23.4677 7.07741 24.078 10.1705C24.078 10.1732 25.0088 14.6209 22.8437 18.1439L19.6797 15.3732C20.252 13.9703 20.3978 12.4297 20.0989 10.9443C19.8088 9.45043 19.0912 8.07303 18.0332 6.97945C16.9753 5.88588 15.6226 5.12324 14.1395 4.78421C12.6564 4.44517 11.1068 4.54435 9.67903 5.06968C8.25124 5.59501 7.00672 6.52388 6.09674 7.7434C5.18675 8.96292 4.65048 10.4206 4.55308 11.9392C4.45569 13.4579 4.80138 14.9721 5.54813 16.298C6.29488 17.6238 7.41054 18.7041 8.75953 19.4076C10.1085 20.1111 11.6328 20.4076 13.147 20.2609L14.6621 24.1321C13.1272 24.4322 11.5482 24.4266 10.0155 24.1156C8.48277 23.8046 7.02642 23.1942 5.72979 22.3195C4.43316 21.4448 3.32171 20.3229 2.45906 19.018C1.5964 17.7131 0.999483 16.2509 0.702461 14.7149Z" fill="#F7F7FC"/>
<path d="M15.8992 18.7488C15.593 19.2072 15.4296 19.7462 15.4297 20.2975C15.4297 21.0367 15.7234 21.7457 16.246 22.2684C16.7685 22.7911 17.4773 23.0847 18.2163 23.0847C18.7675 23.0847 19.3063 22.9212 19.7645 22.6149C20.2228 22.3086 20.58 21.8733 20.7909 21.3639C21.0018 20.8546 21.057 20.2941 20.9494 19.7534C20.8419 19.2126 20.5765 18.716 20.1867 18.3261C19.797 17.9363 19.3004 17.6708 18.7599 17.5633C18.2193 17.4558 17.659 17.511 17.1498 17.722C16.6406 17.933 16.2054 18.2903 15.8992 18.7488Z" fill="#F7F7FC"/>
</svg>
