<svg width="45" height="45" viewBox="0 0 45 45" fill="none" xmlns="http://www.w3.org/2000/svg">
<circle cx="22.2217" cy="22.29" r="22.1592" fill="#DACF9E" fill-opacity="0.17"/>
<path fill-rule="evenodd" clip-rule="evenodd" d="M18.6988 29.9994C19.0322 31.5978 20.4834 32.8025 22.2206 32.8025C23.9578 32.8025 25.4089 31.5978 25.7424 29.9994H29.408C29.9801 29.9994 30.5285 29.7779 30.9324 29.3834C31.3371 28.9896 31.5642 28.4549 31.5642 27.8971C31.5642 27.3392 31.3371 26.8046 30.9324 26.4107C30.7032 26.1865 30.4272 26.0183 30.1267 25.9146C30.1267 25.9153 30.1267 19.4878 30.1267 19.4878C30.1267 15.2306 26.5869 11.7793 22.2206 11.7793C17.8542 11.7793 14.3144 15.2306 14.3144 19.4878V25.9153C14.014 26.0183 13.738 26.1865 13.5087 26.4107C13.1041 26.8046 12.877 27.3392 12.877 27.8971C12.877 28.4549 13.1041 28.9896 13.5087 29.3834C13.9127 29.7779 14.4611 29.9994 15.0332 29.9994H18.6988ZM20.1873 29.9994C20.4834 30.8158 21.2826 31.4009 22.2206 31.4009C23.1585 31.4009 23.9578 30.8158 24.2539 29.9994H20.1873ZM29.408 28.5978H15.0332C14.8427 28.5978 14.6594 28.5242 14.525 28.3925C14.3899 28.2615 14.3144 28.0828 14.3144 27.8971C14.3144 27.7114 14.3899 27.5327 14.525 27.4016C14.6594 27.2699 14.8427 27.1963 15.0332 27.1963C15.2236 27.1963 15.4069 27.1227 15.5413 26.991C15.6764 26.8599 15.7519 26.6812 15.7519 26.4955V19.4878C15.7519 16.0043 18.6477 13.1808 22.2206 13.1808C25.7934 13.1808 28.6892 16.0043 28.6892 19.4878V26.4955C28.6892 26.6812 28.7647 26.8599 28.8998 26.991C29.0342 27.1227 29.2175 27.1963 29.408 27.1963C29.5985 27.1963 29.7817 27.2699 29.9161 27.4016C30.0513 27.5327 30.1267 27.7114 30.1267 27.8971C30.1267 28.0828 30.0513 28.2615 29.9161 28.3925C29.7817 28.5242 29.5985 28.5978 29.408 28.5978ZM24.2913 16.3294C24.2913 16.3294 25.8035 16.5908 26.183 18.8977C26.2455 19.2797 26.6142 19.5403 27.006 19.4787C27.3977 19.4177 27.665 19.0582 27.6018 18.6763C27.0225 15.1507 24.4623 14.9377 24.4623 14.9377C24.0685 14.8914 23.7105 15.1661 23.6631 15.5502C23.6157 15.9342 23.8974 16.2832 24.2913 16.3294Z" fill="#EBA92A"/>
</svg>
