<svg width="19" height="13" viewBox="0 0 19 13" fill="none" xmlns="http://www.w3.org/2000/svg">
<path fill-rule="evenodd" clip-rule="evenodd" d="M17.9579 2.45646L8.40269 12.2264C8.18796 12.4411 7.86588 12.5843 7.50801 12.5843C7.15013 12.5843 6.86383 12.4411 6.61332 12.2264L1.20944 6.71515C0.994712 6.50043 0.851562 6.17834 0.851562 5.82047C0.851562 5.10473 1.42416 4.53213 2.10412 4.53213C2.46199 4.53213 2.74829 4.67528 2.9988 4.89L7.50801 9.50657L16.2043 0.631311C16.419 0.416587 16.7411 0.273438 17.099 0.273438C17.779 0.273438 18.3516 0.846035 18.3516 1.56178C18.3158 1.91965 18.1726 2.24174 17.9579 2.45646Z" fill="#32BB1B"/>
</svg>
