<svg width="14" height="14" viewBox="0 0 14 14" fill="none" xmlns="http://www.w3.org/2000/svg">
<path d="M6.58984 0.458984C6.01082 0.458984 5.54146 0.928368 5.54146 1.50737V5.9106H1.13823C0.559228 5.9106 0.0898438 6.37996 0.0898438 6.95898C0.0898438 7.53801 0.559228 8.00737 1.13823 8.00737H5.54146V12.4106C5.54146 12.9896 6.01082 13.459 6.58984 13.459C7.16887 13.459 7.63823 12.9896 7.63823 12.4106V8.00737H12.0415C12.6205 8.00737 13.0898 7.53801 13.0898 6.95898C13.0898 6.37996 12.6205 5.9106 12.0415 5.9106H7.63823V1.50737C7.63823 0.928368 7.16887 0.458984 6.58984 0.458984Z" fill="#0079FF"/>
</svg>
