<svg width="14" height="15" viewBox="0 0 14 15" fill="none" xmlns="http://www.w3.org/2000/svg">
<path d="M6.86099 0.119141C3.4428 0.119141 0.660156 2.89969 0.660156 6.31997C0.660156 8.88937 3.92573 12.3264 5.87421 14.1473C6.15017 14.4066 6.50558 14.5362 6.86099 14.5362C7.2164 14.5362 7.5718 14.4066 7.84777 14.1473C9.79415 12.3264 13.0618 8.88727 13.0618 6.31997C13.0618 2.89969 10.2792 0.119141 6.86099 0.119141ZM7.27702 13.5369C7.04287 13.7543 6.67701 13.7543 6.44495 13.5369C5.28465 12.4518 1.49641 8.72211 1.49641 6.31997C1.49641 3.36172 3.90274 0.955396 6.86099 0.955396C9.81924 0.955396 12.2256 3.36172 12.2256 6.31997C12.2256 8.72211 8.43733 12.4497 7.27702 13.5369Z" fill="#EBA92A"/>
<path d="M6.92038 3.82031C5.57401 3.82031 4.47852 4.91581 4.47852 6.26218C4.47852 7.60855 5.57192 8.70404 6.92038 8.70404C8.26675 8.70404 9.36224 7.60855 9.36224 6.26218C9.36224 4.91581 8.26675 3.82031 6.92038 3.82031ZM6.92038 7.86779C6.03395 7.86779 5.31477 7.14652 5.31477 6.26218C5.31477 5.37784 6.03604 4.65657 6.92038 4.65657C7.80472 4.65657 8.52599 5.37784 8.52599 6.26218C8.52599 7.14652 7.80472 7.86779 6.92038 7.86779Z" fill="#EBA92A"/>
</svg>
