<svg width="14" height="14" viewBox="0 0 14 14" fill="none" xmlns="http://www.w3.org/2000/svg">
<path fill-rule="evenodd" clip-rule="evenodd" d="M8.33185 6.81811L13.1209 2.02907C13.4747 1.6753 13.4747 1.10348 13.1209 0.749704C12.7671 0.395932 12.1953 0.395932 11.8415 0.749704L7.05248 5.53874L2.26345 0.749704C1.90968 0.395932 1.33785 0.395932 0.984079 0.749704C0.630307 1.10348 0.630307 1.6753 0.984079 2.02907L5.77312 6.81811L0.984079 11.6071C0.630307 11.9609 0.630307 12.5327 0.984079 12.8865C1.16051 13.0629 1.39214 13.1516 1.62376 13.1516C1.85539 13.1516 2.08701 13.0629 2.26345 12.8865L7.05248 8.09748L11.8415 12.8865C12.018 13.0629 12.2496 13.1516 12.4812 13.1516C12.7128 13.1516 12.9445 13.0629 13.1209 12.8865C13.4747 12.5327 13.4747 11.9609 13.1209 11.6071L8.33185 6.81811Z" fill="white"/>
</svg>
