<svg width="9" height="9" viewBox="0 0 9 9" fill="none" xmlns="http://www.w3.org/2000/svg">
<path fill-rule="evenodd" clip-rule="evenodd" d="M5.35899 4.36543L8.3836 1.34082C8.60703 1.11739 8.60703 0.75624 8.3836 0.532808C8.16017 0.309376 7.79902 0.309376 7.57559 0.532808L4.55098 3.55742L1.52637 0.532808C1.30293 0.309376 0.941786 0.309376 0.718355 0.532808C0.494923 0.75624 0.494923 1.11739 0.718355 1.34082L3.74297 4.36543L0.718355 7.39004C0.494923 7.61347 0.494923 7.97462 0.718355 8.19805C0.829785 8.30948 0.976073 8.36548 1.12236 8.36548C1.26865 8.36548 1.41494 8.30948 1.52637 8.19805L4.55098 5.17344L7.57559 8.19805C7.68702 8.30948 7.83331 8.36548 7.9796 8.36548C8.12588 8.36548 8.27217 8.30948 8.3836 8.19805C8.60703 7.97462 8.60703 7.61347 8.3836 7.39004L5.35899 4.36543Z" fill="#046DE3"/>
</svg>
