<svg width="65" height="65" viewBox="0 0 65 65" fill="none" xmlns="http://www.w3.org/2000/svg">
<path d="M65.004 32.3373C65.004 33.718 63.0136 34.9544 62.8392 36.288C62.6612 37.6524 64.2641 39.3587 63.916 40.662C63.5643 41.9878 61.3186 42.6658 60.8002 43.9156C60.2762 45.1816 61.3791 47.2452 60.6996 48.4169C60.0202 49.5887 57.6753 49.6724 56.8461 50.7499C56.0168 51.8274 56.5472 54.1118 55.585 55.074C54.6228 56.0361 52.3412 55.5044 51.2602 56.335C50.1792 57.1657 50.1095 59.505 48.9279 60.1893C47.7463 60.8737 45.6884 59.7673 44.4266 60.2892C43.1768 60.8076 42.4981 63.0505 41.173 63.405C39.8697 63.7531 38.1627 62.1509 36.7983 62.3289C35.4619 62.5026 34.229 64.493 32.8483 64.493C31.4677 64.493 30.2312 62.5026 28.8977 62.3289C27.5333 62.1509 25.8263 63.7531 24.523 63.405C23.1979 63.0533 22.5192 60.8076 21.2701 60.2892C20.0041 59.7652 17.9398 60.868 16.7687 60.1893C15.5977 59.5106 15.514 57.165 14.4365 56.335C13.359 55.5051 11.0739 56.0368 10.1117 55.074C9.14953 54.1111 9.68125 51.8302 8.85062 50.7499C8.01998 49.6696 5.68069 49.5985 4.99705 48.4169C4.31341 47.2353 5.41905 45.1774 4.89648 43.9156C4.37883 42.6658 2.13519 41.9871 1.78142 40.662C1.42975 39.3587 3.03546 37.6524 2.85752 36.288C2.68379 34.9516 0.693359 33.718 0.693359 32.3373C0.693359 30.9567 2.68379 29.7202 2.85752 28.3867C3.03546 27.0222 1.43256 25.316 1.78142 24.0127C2.13308 22.6869 4.37883 22.0089 4.89648 20.7591C5.42116 19.4931 4.31763 17.4295 4.99705 16.2577C5.67647 15.086 8.02139 15.0023 8.85062 13.9248C9.67985 12.8473 9.14953 10.5628 10.1117 9.60067C11.0739 8.63851 13.3555 9.17024 14.4365 8.3396C15.5175 7.50897 15.5871 5.16968 16.7694 4.48533C17.9517 3.80099 20.0083 4.90733 21.2708 4.38546C22.5199 3.8671 23.1986 1.62417 24.5244 1.26969C25.827 0.918028 27.534 2.52373 28.8984 2.34579C30.2348 2.17207 31.4684 0.181641 32.849 0.181641C34.2297 0.181641 35.4661 2.17207 36.799 2.34579C38.1634 2.52373 39.8704 0.921545 41.1737 1.26969C42.4988 1.62136 43.1775 3.8671 44.4273 4.38546C45.6933 4.90944 47.7569 3.80662 48.9286 4.48533C50.1004 5.16405 50.1841 7.50967 51.2609 8.3396C52.3377 9.16953 54.6235 8.63781 55.5857 9.60067C56.5479 10.5635 56.0161 12.8444 56.8468 13.9248C57.6774 15.0051 60.0167 15.0761 60.7003 16.2577C61.384 17.4393 60.2783 19.4973 60.8009 20.7591C61.3193 22.0089 63.5622 22.6876 63.9167 24.0127C64.2683 25.316 62.6619 27.0222 62.8399 28.3867C63.0136 29.7202 65.004 30.9567 65.004 32.3373Z" fill="#0079FF"/>
<path d="M28.2043 41.7985L20.7188 35.5067L22.6441 33.0625L27.9589 37.4116L42.2703 22.877L44.9795 24.7618L28.2043 41.7985Z" fill="white"/>
</svg>
